<?xml version="1.0" encoding="utf-8"?>
<!-- Generator: Adobe Illustrator 22.0.0, SVG Export Plug-In . SVG Version: 6.00 Build 0)  -->
<svg version="1.1" id="圖層_1" xmlns="http://www.w3.org/2000/svg" xmlns:xlink="http://www.w3.org/1999/xlink" x="0px" y="0px"
	 viewBox="0 0 25 25" style="enable-background:new 0 0 25 25;" xml:space="preserve">
<g>
	<path d="M24.6,0.5c0.1,0.1,0.2,0.2,0.3,0.3C25,1,25,1.3,24.9,1.7c-2.3,6-4.5,11.9-6.8,17.9c-0.6,1.6-1.2,3.3-1.8,4.9
		C16,25,15.6,25.2,15,25c0,0-0.1,0-0.1,0c-0.1-0.1-0.2-0.2-0.3-0.3c0-0.2-0.1-0.3-0.1-0.5c-0.5-3.9-1.1-7.8-1.6-11.6
		c0-0.1,0-0.2,0-0.3c-0.1,0-0.2,0-0.2,0c-3.1-0.5-6.3-0.9-9.4-1.4c-0.9-0.1-1.9-0.3-2.8-0.5c-0.1-0.1-0.2-0.2-0.3-0.3
		c-0.3-0.6,0-1.2,0.6-1.4c0.2,0,0.3-0.1,0.4-0.2c7.4-2.7,14.9-5.3,22.3-8C23.9,0.3,24.3,0.3,24.6,0.5z"/>
</g>
</svg>
