<?xml version="1.0" encoding="utf-8"?>
<!-- Generator: Adobe Illustrator 22.0.0, SVG Export Plug-In . SVG Version: 6.00 Build 0)  -->
<svg version="1.1" id="圖層_1" xmlns="http://www.w3.org/2000/svg" xmlns:xlink="http://www.w3.org/1999/xlink" x="0px" y="0px"
	 viewBox="0 0 25 25" style="enable-background:new 0 0 25 25;" xml:space="preserve">
<path d="M22.7,3.5H2.3C1,3.5,0,4.5,0,5.8v14.1c0,1.3,1,2.3,2.3,2.3h20.3c1.3,0,2.3-1,2.3-2.3V5.8C25,4.5,24,3.5,22.7,3.5z
	 M22.4,19.9H2.6c-0.2,0-0.3-0.1-0.3-0.3V6.1c0-0.2,0.1-0.3,0.3-0.3h19.7c0.2,0,0.3,0.1,0.3,0.3v13.5C22.7,19.8,22.5,19.9,22.4,19.9z
	 M6.3,7.8c-1.1,0-2,0.9-2,2s0.9,2,2,2s2-0.9,2-2S7.3,7.8,6.3,7.8z M4.7,17.6h15.6v-3.9L16,9.4c-0.2-0.2-0.6-0.2-0.8,0l-5.8,5.8
	l-1.9-1.9c-0.2-0.2-0.6-0.2-0.8,0l-1.9,1.9V17.6z"/>
</svg>
