<?xml version="1.0" encoding="utf-8"?>
<!-- Generator: Adobe Illustrator 22.0.0, SVG Export Plug-In . SVG Version: 6.00 Build 0)  -->
<svg version="1.1" id="圖層_1" xmlns="http://www.w3.org/2000/svg" xmlns:xlink="http://www.w3.org/1999/xlink" x="0px" y="0px"
	 viewBox="0 0 25 25" style="enable-background:new 0 0 25 25;" xml:space="preserve">
<style type="text/css">
	.st0{fill:#888888;}
</style>
<path class="st0" d="M20.3,21.6h-4.1c-0.3,0-0.6-0.3-0.6-0.6v-2c0-0.3,0.3-0.6,0.6-0.6h4.1c0.9,0,1.6-0.7,1.6-1.6V7.6
	c0-0.9-0.7-1.6-1.6-1.6h-4.1c-0.3,0-0.6-0.3-0.6-0.6v-2c0-0.3,0.3-0.6,0.6-0.6h4.1C22.9,2.9,25,5,25,7.6V17
	C25,19.5,22.9,21.6,20.3,21.6z M18,11.8L9.8,3.6c-0.7-0.7-2-0.2-2,0.8v4.7H1.2C0.5,9.1,0,9.6,0,10.3V15c0,0.6,0.5,1.2,1.2,1.2h6.6
	v4.7c0,1,1.3,1.6,2,0.8l8.2-8.2C18.5,13,18.5,12.3,18,11.8z"/>
</svg>
