<?xml version="1.0" encoding="utf-8"?>
<!-- Generator: Adobe Illustrator 22.0.0, SVG Export Plug-In . SVG Version: 6.00 Build 0)  -->
<svg version="1.1" id="圖層_1" focusable="false" xmlns="http://www.w3.org/2000/svg" xmlns:xlink="http://www.w3.org/1999/xlink"
	 x="0px" y="0px" viewBox="0 0 21.9 25" style="enable-background:new 0 0 21.9 25;" xml:space="preserve">
<style type="text/css">
	.st0{fill:#888888;}
</style>
<path class="st0" d="M19.5,10.9h-1.2V7.4C18.4,3.3,15,0,10.9,0S3.5,3.3,3.5,7.4v3.5H2.3C1,10.9,0,12,0,13.3v9.4C0,24,1,25,2.3,25
	h17.2c1.3,0,2.3-1,2.3-2.3v-9.4C21.9,12,20.8,10.9,19.5,10.9z M14.5,10.9h-7V7.4c0-1.9,1.6-3.5,3.5-3.5s3.5,1.6,3.5,3.5V10.9z"/>
</svg>
