<?xml version="1.0" encoding="utf-8"?>
<!-- Generator: Adobe Illustrator 22.0.0, SVG Export Plug-In . SVG Version: 6.00 Build 0)  -->
<svg version="1.1" id="圖層_1" xmlns="http://www.w3.org/2000/svg" xmlns:xlink="http://www.w3.org/1999/xlink" x="0px" y="0px"
	 viewBox="0 0 25 25" style="enable-background:new 0 0 25 25;" xml:space="preserve">
<style type="text/css">
	.st0{fill:#888888;}
</style>
<path class="st0" d="M20.3,15.1l1.2-3.1c0.2-0.5-0.2-1.1-0.7-1.1h-2.9c0.5-0.9,0.9-2,0.9-3.1v0c1.9-0.4,3.1-0.9,3.1-1.5
	c0-0.6-1.3-1.2-3.4-1.6c-0.4-1.6-1.3-3.2-2-4c-0.5-0.6-1.3-0.8-1.9-0.4l-1.3,0.7c-0.4,0.2-1,0.2-1.4,0l-1.3-0.7
	C9.8-0.1,9,0.1,8.5,0.6c-0.7,0.8-1.5,2.4-2,4c-2.1,0.4-3.4,1-3.4,1.6c0,0.6,1.2,1.2,3.1,1.5v0c0,1.1,0.3,2.2,0.9,3.1H4.3
	c-0.6,0-0.9,0.6-0.7,1.1L4.8,15c-2,1.1-3.3,3.2-3.3,5.7v2.2c0,1.2,1,2.2,2.2,2.2h17.5c1.2,0,2.2-1,2.2-2.2v-2.2
	C23.4,18.3,22.1,16.2,20.3,15.1L20.3,15.1z M10.1,23.5l-2-9.4l2.4,1.6l1.2,2L10.1,23.5z M14.8,23.5l-1.6-5.9l1.2-2l2.4-1.6
	L14.8,23.5z M16.8,8.9c-0.2,0.6-0.3,1.2-0.8,1.6c-0.5,0.5-2.3,1.1-3.1-1.2c-0.1-0.4-0.8-0.4-0.9,0c-0.8,2.5-2.7,1.6-3.1,1.2
	c-0.5-0.4-0.6-1-0.8-1.6c0-0.1-0.3-0.3-0.3-0.3V8.1c1.4,0.2,3,0.3,4.7,0.3s3.3-0.1,4.7-0.3v0.5C17.2,8.6,16.9,8.8,16.8,8.9z"/>
</svg>
