<?xml version="1.0" encoding="utf-8"?>
<!-- Generator: Adobe Illustrator 22.0.0, SVG Export Plug-In . SVG Version: 6.00 Build 0)  -->
<svg version="1.1" id="圖層_1" focusable="false" xmlns="http://www.w3.org/2000/svg" xmlns:xlink="http://www.w3.org/1999/xlink"
	 x="0px" y="0px" viewBox="0 0 21.9 25" style="enable-background:new 0 0 21.9 25;" xml:space="preserve">
<style type="text/css">
	.st0{fill:#888888;}
</style>
<g>
	<path class="st0" d="M10.9,12.5c3.5,0,6.3-2.8,6.3-6.3S14.4,0,10.9,0S4.7,2.8,4.7,6.3S7.5,12.5,10.9,12.5z M15.3,14.1h-0.8
		c-1.1,0.5-2.3,0.8-3.6,0.8s-2.5-0.3-3.6-0.8H6.6C2.9,14.1,0,17,0,20.6v2C0,24,1,25,2.3,25h17.2c1.3,0,2.3-1,2.3-2.3v-2
		C21.9,17,18.9,14.1,15.3,14.1z"/>
</g>
</svg>
